<?xml version="1.0" encoding="UTF-8" standalone="no"?>
<!DOCTYPE svg PUBLIC "-//W3C//DTD SVG 20010904//EN" "http://www.w3.org/TR/2001/REC-SVG-20010904/DTD/svg10.dtd">
<svg version="1.0" xmlns="http://www.w3.org/2000/svg" width="286.000000pt" height="295.000000pt" viewBox="0 0 286.000000 295.000000" preserveAspectRatio="xMidYMid meet">

<g transform="translate(0.000000,295.000000) scale(0.100000,-0.100000)" fill="#000000" stroke="none">
<path d="M923 2741 c-56 -26 -69 -49 -95 -176 l-23 -110 -45 -22 c-25 -12 -51 -22 -59 -22 -7 -1 -53 24 -102 55 -140 89 -181 89 -278 -1 -67 -63 -91 -105 -91 -163 0 -32 12 -58 60 -131 33 -50 60 -98 60 -105 0 -27 -41 -105 -58 -110 -9 -3 -57 -13 -105 -22 -151 -29 -187 -71 -187 -212 0 -148 31 -182 198 -214 l109 -22 25 -55 24 -56 -59 -89 c-100 -149 -98 -183 15 -293 110 -106 143 -107 290 -11 l91 60 56 -26 56 -25 23 -108 c36 -169 62 -193 209 -193 155 0 185 26 218 189 l20 106 58 27 c49 24 57 32 57 56 0 34 -16 52 -46 52 -23 0 -131 -37 -150 -52 -7 -5 -22 -61 -34 -126 -12 -64 -26 -125 -31 -134 -8 -15 -23 -18 -87 -18 -42 0 -83 4 -90 8 -7 5 -23 63 -36 131 -12 67 -29 128 -37 136 -8 7 -43 25 -79 40 -131 53 -108 56 -228 -24 -59 -39 -114 -71 -121 -71 -24 0 -121 102 -121 127 0 13 29 67 65 121 36 53 65 106 65 117 0 19 -17 60 -68 165 -17 35 -18 35 -146 61 -71 15 -132 33 -137 40 -14 23 -11 155 4 168 8 6 69 22 136 36 67 14 126 27 131 30 5 3 14 22 21 43 6 20 22 58 35 84 13 26 24 56 24 67 0 11 -31 68 -70 127 -38 58 -70 111 -70 116 0 19 106 118 127 118 10 0 65 -29 121 -65 57 -36 112 -65 123 -65 11 0 36 8 57 19 20 10 56 25 80 32 23 7 47 18 52 24 6 7 21 67 35 134 14 67 27 127 30 132 9 14 171 11 182 -3 6 -7 20 -65 33 -129 12 -64 25 -121 29 -126 7 -12 179 -83 201 -83 8 0 61 29 118 65 57 36 111 65 120 65 22 0 122 -100 122 -122 0 -8 -22 -49 -48 -89 -26 -41 -58 -90 -70 -110 l-22 -36 39 -94 c22 -52 48 -99 58 -105 10 -7 63 -20 118 -29 154 -27 145 -20 145 -119 0 -55 -4 -87 -12 -93 -7 -6 -56 -18 -108 -28 -158 -28 -155 -27 -184 -103 -32 -84 -33 -107 -2 -127 35 -23 63 -5 91 59 l23 53 108 21 c171 35 194 60 194 215 0 149 -29 182 -185 211 -49 10 -97 19 -106 22 -8 2 -26 29 -38 59 l-23 56 60 92 c33 51 63 103 67 115 13 44 -5 92 -53 145 -75 81 -118 107 -172 107 -40 0 -60 -9 -141 -60 -98 -64 -102 -64 -171 -35 -41 16 -40 15 -64 137 -20 106 -42 143 -97 168 -57 27 -176 27 -234 1z m240 -26 c38 -24 52 -55 72 -155 9 -47 19 -93 22 -103 3 -11 32 -31 69 -47 l64 -29 102 64 c143 91 174 89 280 -23 59 -61 75 -95 64 -136 -3 -13 -33 -66 -67 -117 l-62 -94 19 -53 c9 -29 22 -60 28 -67 6 -8 61 -25 121 -38 169 -37 185 -53 185 -194 0 -142 -23 -165 -190 -197 l-111 -21 -22 -55 c-17 -41 -28 -56 -45 -58 -34 -5 -37 20 -11 93 27 75 26 74 179 101 127 22 135 30 135 139 0 62 -4 88 -15 99 -8 9 -64 25 -125 36 -141 26 -150 31 -165 77 -7 21 -23 59 -36 84 l-23 47 69 108 c38 60 70 120 70 134 0 37 -105 140 -143 140 -17 0 -66 -25 -128 -65 -55 -36 -104 -65 -110 -65 -15 0 -163 62 -177 75 -7 6 -22 60 -33 120 -29 156 -28 155 -143 155 -68 0 -97 -4 -105 -14 -7 -8 -22 -69 -36 -136 -13 -67 -26 -124 -29 -127 -8 -8 -169 -73 -181 -73 -5 0 -55 30 -110 65 -63 41 -110 65 -128 65 -33 0 -118 -74 -137 -120 -12 -28 -9 -35 59 -140 39 -61 71 -114 71 -118 0 -6 -70 -174 -75 -180 -2 -2 -59 -14 -127 -28 -153 -29 -158 -34 -158 -143 0 -48 5 -84 13 -95 10 -13 49 -25 138 -43 68 -13 128 -28 133 -33 7 -7 28 -52 69 -152 10 -24 5 -35 -56 -127 -93 -140 -93 -138 -15 -216 40 -41 73 -65 87 -65 12 0 61 26 109 58 134 90 118 87 214 46 46 -19 87 -39 92 -44 7 -7 13 -30 46 -192 6 -32 18 -65 26 -73 20 -20 172 -21 198 -2 12 9 26 52 44 143 l27 129 67 24 c74 26 101 23 96 -10 -2 -15 -17 -27 -52 -40 -26 -10 -50 -20 -52 -22 -2 -2 -13 -50 -25 -108 -23 -113 -45 -159 -84 -177 -37 -17 -190 -15 -223 2 -47 24 -59 48 -83 161 -12 61 -27 115 -33 121 -6 5 -37 20 -68 33 l-58 23 -87 -55 c-49 -31 -101 -60 -116 -66 -51 -20 -96 1 -170 78 -63 64 -67 72 -67 114 0 40 9 58 66 142 l66 97 -30 66 -29 67 -113 22 c-127 26 -156 40 -176 88 -18 44 -18 166 0 208 22 53 48 67 168 93 62 13 114 24 116 24 2 0 16 30 33 66 l29 67 -65 100 c-50 77 -65 108 -65 137 0 42 33 94 98 152 76 68 120 65 251 -20 l92 -59 67 27 66 27 22 104 c27 136 30 145 62 168 38 27 57 30 147 27 58 -1 88 -7 108 -21z"/>
<path d="M918 2184 c-111 -26 -238 -111 -238 -158 0 -52 53 -61 109 -17 83 66 196 99 294 87 75 -10 168 -56 225 -113 106 -106 138 -249 89 -392 -27 -77 -26 -95 4 -111 71 -39 138 134 118 304 -12 99 -57 186 -136 265 -38 38 -92 80 -120 95 -106 53 -232 68 -345 40z m278 -35 c115 -43 213 -133 267 -247 30 -63 32 -73 32 -182 0 -100 -3 -122 -24 -167 -18 -42 -28 -53 -47 -53 -34 0 -36 13 -12 66 18 40 23 67 23 149 0 92 -3 105 -32 167 -114 241 -421 313 -623 147 -38 -32 -68 -37 -77 -13 -14 36 112 121 223 149 77 19 193 12 270 -16z"/>
<path d="M964 1979 c-58 -17 -126 -71 -157 -126 -63 -113 -41 -241 54 -327 132 -119 338 -78 415 82 29 59 30 158 4 221 -51 118 -193 186 -316 150z m171 -33 c84 -36 145 -129 145 -224 0 -136 -106 -242 -242 -242 -70 0 -121 19 -166 63 -115 110 -101 295 29 381 68 46 157 54 234 22z"/>
<path d="M965 1892 c-179 -84 -132 -337 63 -350 102 -6 182 62 190 162 12 142 -129 246 -253 188z m166 -37 c25 -16 43 -39 54 -69 42 -109 -21 -213 -134 -224 -139 -13 -229 145 -144 256 55 72 148 88 224 37z"/>
<path d="M588 1893 c-9 -10 -21 -42 -27 -71 -67 -321 210 -627 528 -582 164 23 285 102 241 155 -19 22 -51 18 -116 -15 -152 -77 -325 -50 -444 70 -90 89 -129 205 -108 322 14 79 13 104 -2 123 -17 20 -53 19 -72 -2z m58 -18 c4 -8 1 -52 -6 -97 -11 -72 -10 -92 4 -148 67 -261 343 -389 579 -269 60 30 82 35 91 20 12 -20 -9 -43 -63 -71 -78 -39 -131 -52 -220 -52 -279 0 -495 253 -453 529 7 42 17 82 23 90 15 17 38 17 45 -2z"/>
<path d="M1903 1440 c-39 -24 -48 -39 -64 -119 -11 -51 -18 -65 -39 -76 -25 -13 -32 -11 -91 25 -95 57 -131 57 -195 -2 -87 -80 -94 -125 -33 -218 l40 -62 -15 -39 c-21 -52 -20 -82 3 -103 33 -30 63 -8 94 73 31 79 30 83 -36 180 l-29 43 34 35 35 35 72 -46 c39 -25 75 -46 79 -46 10 0 141 55 148 63 4 4 14 44 23 89 l17 83 49 0 49 0 16 -80 c9 -45 19 -86 23 -91 3 -6 37 -23 76 -39 l70 -28 76 48 76 47 30 -28 c16 -15 29 -34 29 -41 0 -8 -18 -41 -41 -74 -22 -33 -40 -68 -41 -77 0 -26 48 -135 66 -148 9 -6 50 -17 91 -24 l76 -13 -3 -50 -3 -51 -75 -14 c-41 -7 -81 -18 -88 -25 -19 -15 -62 -114 -62 -141 0 -11 18 -48 40 -81 22 -33 40 -65 40 -71 0 -5 -14 -23 -31 -40 -34 -32 -24 -35 -135 35 l-50 32 -70 -32 c-38 -17 -71 -33 -73 -35 -2 -2 -11 -41 -20 -86 l-17 -83 -49 0 -49 0 -16 75 c-8 41 -19 81 -24 88 -10 17 -114 64 -142 64 -12 0 -49 -18 -82 -41 -34 -22 -65 -41 -69 -41 -5 0 -23 15 -40 33 l-32 32 44 70 c25 39 45 77 44 85 0 8 -14 44 -32 80 l-32 65 -65 12 c-117 23 -110 19 -110 65 0 34 5 46 32 68 26 22 30 31 24 53 -8 35 -44 44 -91 22 -49 -24 -65 -59 -65 -144 0 -96 22 -122 122 -146 109 -26 121 -53 63 -145 -59 -92 -43 -158 58 -231 56 -40 90 -38 167 11 79 52 108 47 128 -21 43 -149 57 -164 161 -164 108 0 139 27 161 142 11 54 16 63 42 74 23 9 34 10 47 1 128 -90 167 -91 249 -9 75 75 78 108 22 200 -38 62 -41 71 -30 97 10 24 20 30 75 40 111 21 145 59 145 162 0 84 -38 132 -119 148 -85 17 -89 19 -98 47 -8 22 -3 38 29 92 57 98 54 128 -20 203 -54 54 -62 58 -104 58 -35 0 -58 -8 -104 -38 -50 -32 -63 -36 -86 -28 -23 8 -29 19 -43 82 -13 60 -22 78 -51 103 -31 28 -41 31 -102 31 -49 0 -76 -5 -99 -20z m170 -11 c31 -14 44 -39 65 -123 16 -64 20 -69 53 -83 36 -14 38 -13 99 26 90 58 118 56 187 -12 68 -69 70 -95 12 -186 -39 -62 -40 -65 -27 -100 13 -34 18 -37 91 -56 105 -27 122 -46 122 -133 0 -99 -14 -116 -117 -139 -83 -20 -83 -20 -97 -61 -15 -40 -15 -41 24 -99 59 -87 56 -119 -18 -190 -52 -50 -61 -55 -91 -50 -19 3 -59 22 -91 43 -56 38 -57 38 -98 23 -40 -14 -42 -16 -58 -84 -9 -38 -19 -77 -23 -86 -12 -29 -57 -44 -124 -43 -58 1 -68 4 -88 27 -13 15 -29 57 -39 100 -16 72 -17 75 -54 87 -37 12 -41 11 -107 -29 -37 -22 -76 -41 -86 -41 -31 0 -72 26 -111 69 -50 55 -49 88 4 175 l40 67 -18 37 c-17 34 -23 38 -93 53 -98 23 -120 46 -120 130 0 77 19 114 66 129 30 10 38 10 45 -1 13 -21 11 -26 -21 -49 -27 -19 -30 -27 -30 -75 0 -64 4 -67 107 -85 80 -13 78 -11 110 -90 l23 -55 -45 -73 c-25 -40 -45 -76 -45 -80 0 -4 20 -28 45 -52 l44 -43 71 46 c38 26 76 47 84 47 7 0 39 -11 69 -25 59 -26 62 -31 82 -135 13 -72 11 -70 80 -70 73 0 64 -12 89 113 8 37 15 69 17 71 2 1 32 14 66 28 l61 26 76 -51 77 -50 44 43 c25 24 45 48 45 52 0 5 -20 39 -45 76 -25 37 -45 74 -44 82 0 8 12 40 27 70 l27 55 76 16 c42 9 81 19 88 23 6 4 11 33 11 66 l0 59 -37 10 c-21 5 -54 12 -73 16 -19 4 -43 9 -52 11 -17 5 -68 103 -68 131 0 8 18 41 40 73 22 33 43 66 46 74 6 17 -61 96 -82 96 -8 0 -46 -20 -85 -45 -72 -44 -72 -44 -108 -29 -20 9 -48 20 -63 26 -28 10 -38 32 -54 123 -12 68 -19 75 -78 75 -31 0 -58 -5 -64 -12 -5 -7 -15 -45 -22 -85 -7 -39 -16 -76 -19 -81 -3 -5 -34 -22 -69 -37 l-62 -28 -70 47 c-38 25 -75 46 -82 46 -15 0 -88 -70 -88 -85 0 -6 20 -43 45 -82 l46 -71 -27 -66 c-20 -48 -33 -66 -46 -66 -28 0 -32 25 -12 79 l17 49 -42 71 c-55 91 -52 118 19 185 65 61 99 62 186 5 61 -40 62 -40 98 -25 40 17 40 16 57 100 8 42 20 68 39 88 25 24 36 28 89 28 33 0 71 -5 84 -11z"/>
<path d="M1905 977 c-176 -84 -194 -321 -31 -421 67 -42 164 -48 231 -16 53 26 73 57 56 88 -17 32 -47 36 -85 13 -94 -59 -216 9 -216 121 0 92 114 167 193 127 42 -22 77 -63 83 -98 9 -50 30 -81 57 -81 33 0 47 19 47 65 -1 157 -190 271 -335 202z m164 -12 c88 -31 143 -98 145 -178 1 -41 -2 -52 -16 -55 -18 -4 -31 18 -43 72 -9 43 -73 103 -118 111 -78 15 -158 -26 -187 -95 -17 -41 -8 -121 18 -157 44 -62 138 -81 214 -42 35 18 43 19 55 7 21 -22 6 -45 -43 -69 -63 -30 -155 -24 -212 14 -118 78 -133 237 -33 337 67 67 138 84 220 55z"/>
</g>
</svg>